<?xml version="1.0" encoding="iso-8859-1"?>
<!-- Generator: Adobe Illustrator 19.1.0, SVG Export Plug-In . SVG Version: 6.00 Build 0)  -->
<svg version="1.1" id="Capa_1" xmlns="http://www.w3.org/2000/svg" xmlns:xlink="http://www.w3.org/1999/xlink" x="0px" y="0px"
	 viewBox="0 0 61.382 61.382" style="enable-background:new 0 0 61.382 61.382;" xml:space="preserve">
<g>
	<g id="group-41svg">
		<path id="path-1_33_" d="M51.455,61.212h-2.428c-0.829,0-1.5-0.673-1.5-1.501c0-0.83,0.671-1.501,1.5-1.501h2.428
			c0.704,0,1.395-0.112,2.054-0.331c0.785-0.262,1.635,0.163,1.896,0.95c0.262,0.787-0.163,1.637-0.949,1.899
			C53.491,61.048,52.482,61.212,51.455,61.212z M44.026,61.212h-5c-0.828,0-1.5-0.673-1.5-1.501c0-0.83,0.672-1.501,1.5-1.501h5
			c0.829,0,1.5,0.671,1.5,1.501C45.526,60.539,44.855,61.212,44.026,61.212z M34.027,61.212h-5c-0.829,0-1.5-0.673-1.5-1.501
			c0-0.83,0.671-1.501,1.5-1.501h5c0.828,0,1.499,0.671,1.499,1.501C35.526,60.539,34.855,61.212,34.027,61.212z M24.026,61.212h-5
			c-0.828,0-1.5-0.673-1.5-1.501c0-0.83,0.672-1.501,1.5-1.501h5c0.829,0,1.5,0.671,1.5,1.501
			C25.526,60.539,24.855,61.212,24.026,61.212z M14.027,61.212H9.455c-0.17,0-0.338-0.005-0.507-0.013
			c-0.827-0.044-1.463-0.75-1.42-1.578c0.043-0.828,0.739-1.467,1.577-1.421c0.116,0.007,0.233,0.01,0.35,0.01h4.572
			c0.828,0,1.499,0.671,1.499,1.501C15.526,60.539,14.855,61.212,14.027,61.212z M4.435,59.439c-0.331,0-0.664-0.108-0.942-0.332
			c-1.564-1.264-2.672-2.954-3.201-4.888c-0.22-0.799,0.251-1.625,1.05-1.844c0.798-0.219,1.624,0.251,1.843,1.051
			c0.362,1.322,1.121,2.478,2.193,3.345c0.645,0.52,0.745,1.465,0.225,2.11C5.307,59.249,4.872,59.439,4.435,59.439z M57.944,57.889
			c-0.305,0-0.612-0.093-0.877-0.284c-0.672-0.486-0.824-1.424-0.338-2.096c0.802-1.112,1.226-2.428,1.226-3.804
			c0-0.829,0.672-1.501,1.5-1.501c0.828,0,1.5,0.672,1.5,1.501c0,2.011-0.62,3.934-1.795,5.562
			C58.867,57.673,58.408,57.889,57.944,57.889z M1.882,50.346c-0.828,0-1.5-0.672-1.5-1.501v-5.003c0-0.83,0.672-1.502,1.5-1.502
			s1.5,0.672,1.5,1.502v5.003C3.382,49.674,2.71,50.346,1.882,50.346z M59.882,49.919c-0.828,0-1.5-0.672-1.5-1.501v-5.004
			c0-0.828,0.672-1.501,1.5-1.501s1.5,0.673,1.5,1.501v5.004C61.382,49.247,60.71,49.919,59.882,49.919z M1.882,40.339
			c-0.828,0-1.5-0.672-1.5-1.501v-5.004c0-0.829,0.672-1.501,1.5-1.501s1.5,0.672,1.5,1.501v5.004
			C3.382,39.667,2.71,40.339,1.882,40.339z M59.882,39.912c-0.828,0-1.5-0.672-1.5-1.501v-5.004c0-0.828,0.672-1.501,1.5-1.501
			s1.5,0.673,1.5,1.501v5.004C61.382,39.24,60.71,39.912,59.882,39.912z M1.882,30.332c-0.828,0-1.5-0.672-1.5-1.501v-5.004
			c0-0.829,0.672-1.501,1.5-1.501s1.5,0.672,1.5,1.501v5.004C3.382,29.66,2.71,30.332,1.882,30.332z M59.882,29.905
			c-0.828,0-1.5-0.672-1.5-1.501V23.4c0-0.828,0.672-1.501,1.5-1.501s1.5,0.673,1.5,1.501v5.004
			C61.382,29.233,60.71,29.905,59.882,29.905z M1.882,20.325c-0.828,0-1.5-0.672-1.5-1.501V13.82c0-0.829,0.672-1.501,1.5-1.501
			s1.5,0.672,1.5,1.501v5.004C3.382,19.653,2.71,20.325,1.882,20.325z M59.882,19.898c-0.828,0-1.5-0.672-1.5-1.501v-5.004
			c0-0.829,0.672-1.501,1.5-1.501s1.5,0.672,1.5,1.501v5.004C61.382,19.226,60.71,19.898,59.882,19.898z M1.502,10.32
			c-0.053,0-0.106-0.003-0.16-0.009C0.518,10.223-0.079,9.484,0.009,8.66c0.212-1.995,1.034-3.841,2.378-5.338
			c0.554-0.617,1.502-0.668,2.118-0.114c0.617,0.554,0.668,1.503,0.114,2.12c-0.92,1.025-1.482,2.287-1.628,3.649
			C2.91,9.748,2.259,10.32,1.502,10.32z M59.351,9.897c-0.724,0-1.361-0.525-1.48-1.264c-0.217-1.352-0.845-2.582-1.819-3.557
			c-0.586-0.586-0.586-1.536,0-2.122c0.586-0.586,1.535-0.587,2.121,0c1.423,1.424,2.343,3.223,2.661,5.204
			c0.131,0.818-0.426,1.589-1.243,1.72C59.51,9.891,59.43,9.897,59.351,9.897z M7.754,3.352c-0.691,0-1.313-0.48-1.465-1.184
			c-0.176-0.81,0.339-1.609,1.149-1.784c0.659-0.143,1.338-0.215,2.017-0.215h3.287c0.828,0,1.5,0.671,1.5,1.501
			c0,0.828-0.672,1.501-1.5,1.501H9.455c-0.467,0-0.932,0.05-1.383,0.147C7.965,3.341,7.859,3.352,7.754,3.352z M52.737,3.273
			c-0.079,0-0.159-0.007-0.24-0.019c-0.342-0.056-0.692-0.083-1.042-0.083h-3.713c-0.828,0-1.5-0.673-1.5-1.501
			c0-0.83,0.672-1.501,1.5-1.501h3.713c0.508,0,1.019,0.04,1.519,0.121c0.817,0.131,1.374,0.901,1.243,1.72
			C54.098,2.747,53.461,3.273,52.737,3.273z M42.742,3.171h-5c-0.828,0-1.5-0.673-1.5-1.501c0-0.83,0.672-1.501,1.5-1.501h5
			c0.828,0,1.5,0.671,1.5,1.501C44.242,2.498,43.57,3.171,42.742,3.171z M32.742,3.171h-5c-0.828,0-1.5-0.673-1.5-1.501
			c0-0.83,0.672-1.501,1.5-1.501h5c0.828,0,1.5,0.671,1.5,1.501C34.242,2.498,33.57,3.171,32.742,3.171z M22.742,3.171h-5
			c-0.828,0-1.5-0.673-1.5-1.501c0-0.83,0.672-1.501,1.5-1.501h5c0.828,0,1.5,0.671,1.5,1.501
			C24.242,2.498,23.57,3.171,22.742,3.171z"/>
	</g>
</g>
<g>
</g>
<g>
</g>
<g>
</g>
<g>
</g>
<g>
</g>
<g>
</g>
<g>
</g>
<g>
</g>
<g>
</g>
<g>
</g>
<g>
</g>
<g>
</g>
<g>
</g>
<g>
</g>
<g>
</g>
</svg>
